<svg width="74" height="75" xmlns="http://www.w3.org/2000/svg" xmlns:xlink="http://www.w3.org/1999/xlink" overflow="hidden"><defs><clipPath id="clip0"><rect x="2999" y="93" width="74" height="75"/></clipPath></defs><g clip-path="url(#clip0)" transform="translate(-2999 -93)"><path d="M3000 95.6669C3000 94.1941 3001.19 93.0002 3002.67 93.0002L3013.33 93.0002C3014.81 93.0002 3016 94.1941 3016 95.6669L3016 106.334C3016 107.806 3014.81 109 3013.33 109L3002.67 109C3001.19 109 3000 107.806 3000 106.334Z" fill-rule="evenodd"/><path d="M3000 123.667C3000 122.194 3001.19 121 3002.67 121L3013.33 121C3014.81 121 3016 122.194 3016 123.667L3016 134.333C3016 135.806 3014.81 137 3013.33 137L3002.67 137C3001.19 137 3000 135.806 3000 134.333Z" fill-rule="evenodd"/><path d="M2999 153.667C2999 152.194 3000.19 151 3001.67 151L3012.33 151C3013.81 151 3015 152.194 3015 153.667L3015 165.333C3015 166.806 3013.81 168 3012.33 168L3001.67 168C3000.19 168 2999 166.806 2999 165.333Z" fill-rule="evenodd"/><path d="M3028 95.6669C3028 94.1941 3029.19 93.0002 3030.67 93.0002L3041.33 93.0002C3042.81 93.0002 3044 94.1941 3044 95.6669L3044 106.333C3044 107.806 3042.81 109 3041.33 109L3030.67 109C3029.19 109 3028 107.806 3028 106.333Z" fill-rule="evenodd"/><path d="M3028 122.667C3028 121.194 3029.19 120 3030.67 120L3041.33 120C3042.81 120 3044 121.194 3044 122.667L3044 134.333C3044 135.806 3042.81 137 3041.33 137L3030.67 137C3029.19 137 3028 135.806 3028 134.333Z" fill-rule="evenodd"/><path d="M3027 153.833C3027 152.268 3028.27 151 3029.83 151L3041.17 151C3042.73 151 3044 152.268 3044 153.833L3044 165.167C3044 166.732 3042.73 168 3041.17 168L3029.83 168C3028.27 168 3027 166.732 3027 165.167Z" fill-rule="evenodd"/><path d="M3056 95.6669C3056 94.1941 3057.19 93.0002 3058.67 93.0002L3070.33 93.0002C3071.81 93.0002 3073 94.1941 3073 95.6669L3073 106.333C3073 107.806 3071.81 109 3070.33 109L3058.67 109C3057.19 109 3056 107.806 3056 106.333Z" fill-rule="evenodd"/><path d="M3056 122.833C3056 121.269 3057.27 120 3058.83 120L3070.17 120C3071.73 120 3073 121.269 3073 122.833L3073 134.167C3073 135.732 3071.73 137 3070.17 137L3058.83 137C3057.27 137 3056 135.732 3056 134.167Z" fill-rule="evenodd"/><path d="M3056 153.667C3056 152.194 3057.19 151 3058.67 151L3069.33 151C3070.81 151 3072 152.194 3072 153.667L3072 165.333C3072 166.806 3070.81 168 3069.33 168L3058.67 168C3057.19 168 3056 166.806 3056 165.333Z" fill-rule="evenodd"/></g></svg>