<svg width="93" height="75" xmlns="http://www.w3.org/2000/svg" xmlns:xlink="http://www.w3.org/1999/xlink" overflow="hidden"><defs><clipPath id="clip0"><rect x="3088" y="93" width="93" height="75"/></clipPath></defs><g clip-path="url(#clip0)" transform="translate(-3088 -93)"><path d="M3125.62 151 3170.38 151C3176.25 151 3181 154.806 3181 159.5 3181 164.194 3176.25 168 3170.38 168L3125.62 168C3119.75 168 3115 164.194 3115 159.5 3115 154.806 3119.75 151 3125.62 151Z" fill-rule="evenodd"/><path d="M3125.62 120 3170.38 120C3176.25 120 3181 123.806 3181 128.5 3181 133.195 3176.25 137 3170.38 137L3125.62 137C3119.75 137 3115 133.195 3115 128.5 3115 123.806 3119.75 120 3125.62 120Z" fill-rule="evenodd"/><path d="M3125.62 93.9998 3170.38 93.9998C3176.25 93.9998 3181 97.5816 3181 102 3181 106.418 3176.25 110 3170.38 110L3125.62 110C3119.75 110 3115 106.418 3115 102 3115 97.5816 3119.75 93.9998 3125.62 93.9998Z" fill-rule="evenodd"/><path d="M3088 101C3088 96.5818 3091.81 93.0002 3096.5 93.0002 3101.19 93.0002 3105 96.5818 3105 101 3105 105.418 3101.19 109 3096.5 109 3091.81 109 3088 105.418 3088 101Z" fill-rule="evenodd"/><path d="M3088 128.5C3088 123.806 3091.81 120 3096.5 120 3101.19 120 3105 123.806 3105 128.5 3105 133.195 3101.19 137 3096.5 137 3091.81 137 3088 133.195 3088 128.5Z" fill-rule="evenodd"/><path d="M3088 158.5C3088 153.805 3091.81 150 3096.5 150 3101.19 150 3105 153.805 3105 158.5 3105 163.194 3101.19 167 3096.5 167 3091.81 167 3088 163.194 3088 158.5Z" fill-rule="evenodd"/></g></svg>