<?xml version="1.0" encoding="UTF-8"?>
<!-- Created with Inkscape (http://www.inkscape.org/) -->
<svg width="2.5" height="1.5051" version="1.1" viewBox="0 0 2.5 1.5051" xmlns="http://www.w3.org/2000/svg">
 <g transform="translate(-97.632 -69.231)">
  <g transform="matrix(.012939 0 0 .012939 96.559 68.483)" stroke-width=".29091">
   <path d="m127.56 174.08c-6.7678-1.6361-6.6789-1.5748-6.4404-4.4405 0.29799-3.5812 2.609-7.6035 4.3687-7.6035 0.41216 0 1.6189 0.32728 2.6816 0.72728 1.3514 0.50865 2.512 0.72716 3.8612 0.7269 1.061-2.1e-4 3.0162 0.15155 4.345 0.33723 4.3741 0.61123 4.2966-0.2748-0.32819-3.7478-2.5803-1.9378-2.5675-2.7451 0.1074-6.7441 1.8676-2.7922 2.2807-4.1246 2.7588-8.8995 0.11859-1.1845 0.91807-4.2626 1.9112-7.3581 2.1831-6.8049 2.9884-14.991 1.9662-19.987-0.86988-4.252-0.54791-8.3833 0.82369-10.569 0.59006-0.94026 0.32267-1.3954-0.96123-1.6363-2.4558-0.46072-3.7671-1.4401-4.8642-3.6329l-1.0177-2.0342 0.98548-3.1365c1.2917-4.1112 5.2861-15.935 6.7819-20.075 1.8348-5.0781 2.1782-5.5703 4.3297-6.2067 1.1712-0.34638 1.2364-0.42344 1.2364-1.4622 0-1.9536 0.61144-5.5596 1.2172-7.1787 0.67537-1.8051 1.0472-2.0308 4.6572-2.8267l2.2381-0.49342 3.7256 1.0683c8.0035 2.2949 9.9092 3.4409 9.5967 5.7708-0.26915 2.0067 0.65511 3.39 3.0253 4.5279 2.7965 1.3425 3.8674 3.0958 2.5945 4.2478-0.32 0.2896-0.58182 0.75041-0.58182 1.024 0 0.27362-0.26285 0.83165-0.5841 1.2401-0.32126 0.40841-0.66709 1.348-0.76852 2.088-0.11256 0.82126-0.39477 1.4928-0.72437 1.7236-0.29698 0.20801-0.71351 0.88971-0.92562 1.5149-0.43856 1.2926-1.7674 2.1537-3.3247 2.1544-1.3543 5.82e-4 -1.2218 0.60785 0.59365 2.7194 0.8465 0.98459 1.8977 2.2775 2.336 2.8731 1.2896 1.7525 3.2276 2.9324 4.5097 2.7456 4.103-0.59779 4.0466-0.60014 5.0074 0.20837 1.1649 0.98017 1.3071 0.96396 2.0955-0.23869 0.48013-0.73244 0.98814-1.0853 1.8892-1.3122 1.4638-0.36859 2.0449-1.3059 3.0159-4.8647 1.0662-3.9076 2.2111-5.0999 3.86-4.0195 1.155 0.75682 1.1456 1.2413-0.10293 5.295-0.95912 3.1139-1.1681 4.2179-1.1681 6.1713 0 2.4509-0.35446 3.5985-1.4988 4.8524-0.30691 0.33629-0.82604 1.5799-1.1536 2.7636-0.32759 1.1837-1.1017 3.7886-1.7202 5.7886-1.4958 4.8368-4.3592 15.926-5.9716 23.127-0.71651 3.2-1.7096 7.5751-2.2069 9.7225-1.1435 4.9376-0.60318 5.5525 3.6897 4.1993l1.517-0.4782 1.5631 0.90783c3.252 1.8888 3.8367 3.2437 2.5901 6.0021-1.8239 4.036-1.7276 4.2991 0.89156 2.4363 0.68259-0.48546 1.5994-0.14905 4.1326 1.5165 5.1071 3.3577 5.9322 4.6013 7.2089 10.865 1.0707 5.2532 0.83666 5.6718-3.8652 6.9118l-2.5323 0.66785-0.81312-0.60333c-0.48878-0.36267-1.1833-1.4626-1.7413-2.7575-0.5105-1.1848-1.1418-2.6451-1.4029-3.2451-0.26108-0.6-0.59031-1.0909-0.73164-1.0909-0.14132 0-0.0866 0.49091 0.12153 1.0909 1.09 3.1418 0.75535 3.8663-2.0501 4.4381-2.9708 0.60555-6.2662 1.6415-9.2439 2.9061-3.1823 1.3514-4.6041 1.437-5.7934 0.34899-0.34428-0.31498-1.7416-1.1007-3.1052-1.746-2.8904-1.3679-3.2766-1.7387-3.8452-3.6926l-0.42328-1.4545-2.8522 5.8182-3.9273 0.0184c-2.7248 0.0128-4.5445 0.17432-5.9431 0.52754-2.3219 0.58641-3.0005 0.47994-4.6944-0.7365l-1.2272-0.88135-1.9949 0.44897c-8.5758 1.93-16.024 3.0367-17.704 2.6306zm27.653-13.685c1.3039-2.2797 1.5753-2.5749 2.9212-3.1771l1.4837-0.66385 0.15958-2.8962c0.19645-3.5651 0.39242-3.9514 2.3248-4.583 2.3756-0.77645 3.0717-1.2183 3.9065-2.4798l0.77399-1.1696-1.3894-1.4106c-0.76416-0.77583-1.7624-1.4852-2.2184-1.5764-1.7311-0.34621-4.0518-3.078-4.0518-4.7694 0-0.88957 1.613-3.8026 2.7896-5.0381 0.78948-0.82898 4.8442-9.8103 4.6043-10.198-0.2382-0.38541-2.9728-1.0855-5.3575-1.3716-2.596-0.3114-3.4858 0.0458-4.1827 1.679-0.2443 0.57254-1.0372 2.4286-1.762 4.1246-0.72477 1.696-1.5298 3.9214-1.7888 4.9455-0.25909 1.024-0.78205 2.4509-1.1621 3.1709-5.5145 10.446-7.9902 18.342-6.9739 22.244 0.5432 2.0855 0.57071 2.1224 1.8455 2.4754 1.3395 0.37099 1.5285 0.50626 2.3488 1.6807 0.45486 0.65126 0.90311 0.95182 1.4405 0.9659 0.4291 0.0112 1.042 0.13295 1.362 0.27046 1.1965 0.51414 1.4874 0.29318 2.9262-2.2223zm19.892-20.541c0.33544-1.7506 1.0917-4.9804 2.9802-12.727 0.48754-2 1.3311-4.9665 1.8746-6.5923 1.1336-3.391 5.6361-20.422 5.6361-21.32 0-0.7333-0.7154-0.78147-1.3072-0.08802-2.3312 2.7316-2.2959 2.7049-3.9292 2.9789-1.4733 0.24717-1.7357 0.20032-3.3136-0.59159-0.98735-0.49553-2.1762-0.86001-2.8052-0.86001-0.60041 0-2.0632-0.20093-3.2507-0.44651-3.5821-0.7408-4.063-0.4572-6.1354 3.618-0.9277 1.8243-1.5822 3.4084-1.4545 3.5203s1.0831 0.54017 2.1231 0.9518c3.2165 1.2731 12.055 5.6562 12.544 6.221 1.9834 2.2883 1.2606 5.5809-2.5125 11.445-5.7614 8.9537-5.9162 9.3403-4.7942 11.977 1.1888 2.7936 1.8307 3.4171 3.8153 3.7058 0.0992 0.0144 0.33711-0.79194 0.52874-1.7919zm-92.071 21.517c-0.07995-0.20835-0.10899-2.3367-0.06452-4.7297l0.08085-4.3509 3.0545-0.19334c3.597-0.22768 4.539-0.5314 5.0234-1.6196 0.52956-1.1897 0.66424-63.306 0.14177-65.387-0.50072-1.9945-1.4647-2.4701-5.0197-2.4767-3.5864-0.0067-3.3746 0.32308-3.2804-5.1088l0.08037-4.6327h33.164l0.0807 4.5072c0.0962 5.3745 0.1794 5.2383-3.2002 5.2383-2.9002 0-4.1735 0.50206-4.7455 1.8711-0.59044 1.4131-0.63797 64.747-0.0495 65.911 0.55784 1.1029 1.7619 1.5167 4.9827 1.7126l2.9317 0.17831v9.3091l-16.517 0.0751c-13.352 0.0607-16.545 3e-3 -16.663-0.30369zm124.51-2e-3c-0.0794-0.20703-0.10806-2.3343-0.0636-4.7273l0.0808-4.3509 3.0545-0.19334c3.597-0.22768 4.539-0.5314 5.0234-1.6196 0.54673-1.2283 0.51904-65.396-0.0286-66.357-0.59217-1.0391-2.0681-1.5026-4.7844-1.5026-3.5461 0-3.4423 0.16254-3.3456-5.2383l0.0807-4.5072 33.132-0.07397c24.242-0.05412 33.238 0.01396 33.527 0.2538 0.72595 0.60248 0.56586 21.381-0.16775 21.774-0.32808 0.17558-2.7453 0.30114-5.7974 0.30114-6.5332 0-6.149 0.27127-6.149-4.341 0-6.4688 1.3045-5.9671-15.782-6.0697l-13.891-0.08342v25.621h9.702c12.562 0 11.816 0.27806 12.093-4.5091l0.16826-2.9094h11.055l0.0757 13.203c0.0545 9.5062-0.0165 13.314-0.2538 13.6-0.45534 0.54864-10.219 0.57923-10.668 0.0334-0.16433-0.2-0.34399-1.7021-0.39926-3.338-0.15619-4.6237 0.75347-4.2798-11.599-4.3852l-10.174-0.0868v28.572l14.327-0.0953c18.181-0.121 16.77 0.43402 17.058-6.7129l0.1783-4.4265 5.6718-0.0793c5.0763-0.0709 5.7101-0.0269 6.0364 0.41924 0.38331 0.5242 0.55837 20.78 0.18794 21.745-0.24223 0.63123-68.108 0.71437-68.35 0.0837z" fill="#a2daed"/>
   <path d="m125.67 173.35c-1.2-0.31935-2.64-0.80231-3.2-1.0733l-1.0182-0.49264 0.0646-1.9761c0.0704-2.1514 0.63658-3.7264 2.1088-5.8663 1.1503-1.6719 1.7769-1.8166 4.0996-0.94674 1.3783 0.51618 2.7647 0.75378 5.2534 0.90028 1.8595 0.10947 3.806 0.32093 4.3255 0.46991 0.95092 0.27272 2.3285-0.16364 2.7696-0.87727 0.21894-0.35425-1.1255-1.6876-3.4471-3.4186-2.7101-2.0207-2.6794-3.1073 0.20205-7.1554 1.6331-2.2943 1.6438-2.3313 2.6603-9.2025 0.22487-1.52 0.9363-4.2838 1.581-6.1418 1.9963-5.7536 2.3348-7.8312 2.4595-15.095 0.0389-2.2666-0.11088-4.1832-0.46443-5.9431-0.87437-4.3526-0.64628-6.6072 1.0099-9.9821 0.72497-1.4774 0.77778-1.4098-1.6208-2.0749-2.7793-0.77068-5.1473-3.2342-5.1473-5.355 0-0.98367 8.0479-24.725 9.2152-27.185 0.51148-1.0779 1.409-1.6412 3.1046-1.9484 1.0753-0.19488 1.1128-0.24006 0.9444-1.1379-0.38571-2.056 0.81194-7.8676 1.8314-8.8871 0.28497-0.28496 1.6629-0.80524 3.0622-1.1562l2.544-0.63806 2.2309 0.61475c9.1783 2.5292 10.813 3.427 10.813 5.9397 0 2.3457 0.89417 3.6382 3.3166 4.7944 1.3188 0.62941 2.0682 1.2035 2.5154 1.927l0.63688 1.0305-0.58281 0.63722c-0.32055 0.35047-0.67967 0.95549-0.79805 1.3445-0.11837 0.389-0.4602 1.109-0.75962 1.6-0.29941 0.491-0.54488 1.3108-0.54548 1.8217-5.8e-4 0.59796-0.20817 1.074-0.58229 1.336-0.31966 0.2239-0.75475 0.9186-0.96686 1.5438-0.43944 1.2952-1.7679 2.1537-3.3338 2.1544-1.3556 5.82e-4 -1.4919 0.68111-0.39687 1.9806 0.49793 0.5909 1.6236 2.0085 2.5016 3.1503 2.844 3.6986 3.8836 4.1335 8.2055 3.4325 1.0312-0.16724 1.358-0.08355 2.2093 0.56579 1.3215 1.0079 1.8262 0.96162 2.6138-0.23977 0.48013-0.73245 0.98814-1.0853 1.8892-1.3122 1.4745-0.37129 1.9721-1.1872 3.1033-5.0892 0.92842-3.2025 1.3882-3.9422 2.45-3.9422 1.8056 0 1.8751 0.78714 0.46549 5.2716-0.84493 2.688-1.0373 3.7477-1.0235 5.6375 0.0187 2.5564-0.29391 3.6875-1.3324 4.8207-1.2027 1.3124-6.2084 19.231-9.6856 34.671-0.94584 4.1998-1.9222 8.41-2.1698 9.356-0.71307 2.7252 0.77517 3.5789 4.3266 2.482l1.9463-0.60114 1.4269 0.91563c2.0013 1.2842 3.2637 2.7795 3.0225 3.58-0.33052 1.0974-1.8199 4.4099-2.5832 5.7452-1.2705 2.2226-0.94818 2.2779 1.557 0.26734 0.99682-0.8 1.9461-1.4545 2.1095-1.4545 1.3577 0 8.0429 4.9301 8.7702 6.4678 0.69113 1.461 1.975 6.8237 2.1589 9.018l0.16468 1.9643-1.2784 0.56392c-5.4014 2.3827-6.6835 1.8428-8.5286-3.5918-0.57107-1.6821-1.701-3.6671-2.4979-4.3882-0.7289-0.65964-0.74184-0.76668 0.29351 2.4275 1.4056 4.3365 1.3612 4.4298-2.5083 5.2773-2.8105 0.61551-4.434 1.1512-8.3238 2.7463-3.037 1.2454-3.8549 1.2869-5.3454 0.27089-0.62233-0.42417-2.203-1.2652-3.5127-1.8689-3.0166-1.3906-3.4507-2.0733-3.1788-4.9992 0.12981-1.3966 0.0914-1.9413-0.1275-1.806-0.30743 0.19-2.8943 5.501-2.8943 5.9422 0 0.12364-0.28528 0.58746-0.63395 1.0307l-0.63395 0.80593-2.9297-0.16236c-2.2646-0.12551-3.5564-0.0336-5.6904 0.40471-2.8901 0.59365-4.0688 0.53371-4.7101-0.23951-0.82089-0.98987-1.9938-1.2211-4.0202-0.79254-13.019 2.7534-15.949 3.0738-19.491 2.1313zm28.569-10.657c0.24245-0.28 0.99284-1.4656 1.6675-2.6346 0.81522-1.4126 1.4875-2.2262 2.0043-2.4256 2.3394-0.90277 2.218-0.69165 2.3776-4.1368 0.166-3.5848 0.19628-3.6318 2.8798-4.4778 4.6046-1.4515 4.6911-4.8605 0.17473-6.8884-4.3537-1.9548-4.7134-5.1414-1.0532-9.3284 0.94324-1.079 4.8078-9.8899 4.5885-10.461-0.44023-1.1472-7.6402-2.3115-8.8427-1.4299-1.2114 0.88816-3.7773 6.4605-4.9901 10.837-0.59338 2.1413-0.803 2.6233-2.2039 5.0681-0.72241 1.2607-2.4753 5.2429-3.9959 9.0779-2.6992 6.8072-2.8068 14.109-0.20803 14.109 0.9671 0 2.0028 0.65951 2.5848 1.646 0.42401 0.71865 0.78485 0.97755 1.3834 0.99267 0.4454 0.0112 1.0716 0.13295 1.3916 0.27046 0.94473 0.40597 1.7707 0.32557 2.2416-0.21818zm21.75-24.873c1.3666-6.3881 3.3494-14.271 4.2258-16.8 1.119-3.2295 5.0558-17.937 5.8206-21.746 0.37459-1.8653-1.2662-1.5148-2.7952 0.59718-1.5626 2.1583-4.3705 2.6966-6.3703 1.2212-0.54217-0.4-1.3801-0.72727-1.862-0.72727-0.48193 0-2.1256-0.20601-3.6526-0.45779-3.7631-0.6205-4.8-0.30564-5.8183 1.7669-0.39309 0.8-1.2113 2.3555-1.8182 3.4567-1.3805 2.5048-1.4173 2.3146 0.58955 3.0463 0.93117 0.33952 4.3969 1.929 7.7016 3.5322l6.0086 2.9149 0.46587 1.6025c0.7444 2.5606 0.10234 4.2299-4.3392 11.282-5.02 7.97-4.9374 7.7246-3.6409 10.813 1.0974 2.6142 2.0341 3.4523 4.3596 3.9006 0.0968 0.0186 0.60303-1.9625 1.125-4.4025zm-92.734 23.578c-0.49966-0.49966-0.4866-8.4849 0.01455-8.8966 0.2-0.16433 1.6962-0.34399 3.325-0.39926 3.332-0.11305 4.448-0.61845 4.7861-2.1676 0.50528-2.3151 0.26147-64.532-0.25694-65.569-0.69462-1.39-1.632-1.7548-5.1012-1.985l-2.9711-0.19717-0.0807-4.3242c-0.05489-2.9411 0.0263-4.4531 0.2538-4.7273 0.45873-0.55273 32.236-0.60502 32.787-0.05395 0.38857 0.38857 0.50143 8.2817 0.12646 8.8444-0.11755 0.17641-1.4745 0.39408-3.0155 0.48371-5.8989 0.34311-5.3437-3.3059-5.3437 35.123 0 38.389-0.60459 34.612 5.5418 34.617 3.1118 2e-3 3.04-0.11117 3.04 4.8016 0 2.8024-0.11059 4.2124-0.3491 4.4509-0.50373 0.50374-32.253 0.50374-32.756 0zm124.46-0.21239c-0.44347-0.82864-0.39187-7.9391 0.0619-8.5207 0.2794-0.35813 1.0434-0.49088 3.2983-0.57308 3.4673-0.1264 4.3027-0.52031 4.768-2.2482 0.20936-0.77749 0.28255-11.394 0.22961-33.303l-0.07777-32.162-0.76689-0.76683c-0.87583-0.87576-2.4172-1.2514-5.2113-1.27-1.0774-0.0072-2.0572-0.16438-2.2546-0.36176-0.57128-0.57128-0.47744-8.2083 0.10805-8.7938 0.50331-0.50331 65.306-0.7142 66.092-0.21509 0.28722 0.18232 0.35063 2.5752 0.29091 10.977l-0.0764 10.744h-11.636l-0.17117-3.9313c-0.29218-6.7101 0.91446-6.2505-16.411-6.2505h-13.673l-0.0757 12.873-0.0758 12.873h20.687l0.71404-0.71406c0.72616-0.72615 0.92404-1.9148 0.76626-4.6027-0.13078-2.228-0.0839-2.2469 5.5726-2.2469 3.5185 0 5.127 0.10453 5.3716 0.34909 0.4365 0.4365 0.4981 25.728 0.0643 26.415-0.27594 0.43651-10.174 0.69251-10.593 0.27396-0.0893-0.0893-0.22027-1.4639-0.29099-3.0545-0.22593-5.0813 0.53705-4.7831-12.238-4.7831h-10.054l0.151 28.364h14.545c18.363 0 17.013 0.54341 17.017-6.8509 1e-3 -2.4498 0.11648-3.7658 0.35072-4 0.40219-0.4022 10.6-0.49955 11.218-0.1071 0.28732 0.1824 0.3506 2.6333 0.29091 11.268l-0.0763 11.035-33.807 0.0739c-33.191 0.0726-33.813 0.0637-34.109-0.48997z" fill="#67c8e7"/>
   <path d="m125.96 173.42c-4.4203-1.1943-4.7581-1.5193-4.3318-4.1667 0.86087-5.3455 3.0602-7.3953 6.4301-5.9927 1.0981 0.45704 2.4534 0.69644 4.738 0.83699 1.76 0.10826 3.8622 0.29365 4.6716 0.41197 1.3183 0.19271 1.56 0.13908 2.3201-0.51473l0.84851-0.72986-1.1945-1.1222c-0.65698-0.61724-1.8704-1.6197-2.6966-2.2277-2.6187-1.9272-2.5758-2.7195 0.38185-7.039 1.4308-2.0896 1.6956-2.9739 2.353-7.8556 0.32405-2.4065 0.8703-4.6657 1.7584-7.2727 2.364-6.9394 3.2296-15.919 2.0611-21.382-0.84275-3.9402-0.40935-7.7235 1.159-10.117 0.66528-1.0154 0.34307-1.4313-1.3894-1.7938-3.2997-0.69025-5.7551-3.3684-5.3494-5.8347 0.29102-1.769 7.0132-21.837 8.74-26.092 0.57346-1.413 1.4549-2.0807 3.1224-2.3654l1.1875-0.20273 0.0712-2.47c0.0744-2.5837 0.79255-6.1008 1.4634-7.167 0.29183-0.4638 1.0978-0.79418 3.1368-1.2857l2.7441-0.66153 3.7418 1.0962c8.1097 2.3757 9.2424 3.0805 8.9465 5.5668-0.1867 1.5686 0.81225 3.2771 2.3798 4.0702 3.5301 1.7859 4.4417 2.8675 3.3744 4.0036-0.34739 0.36973-0.63158 0.82051-0.63158 1.0017s-0.32727 0.94501-0.72727 1.6973c-0.4 0.7523-0.72728 1.7336-0.72728 2.1807 0 0.48283-0.23598 0.97819-0.5812 1.22-0.31966 0.2239-0.7573 0.9186-0.97253 1.5438-0.42342 1.2299-1.2979 1.8528-2.6108 1.8597-2.2906 0.01199-2.4083 0.83907-0.43903 3.0863 0.82801 0.94489 1.9424 2.325 2.4764 3.0669 1.5592 2.1662 3.842 3.5782 5.3878 3.3325 3.6511-0.5804 3.6587-0.58 4.7402 0.24484 1.2174 0.92857 1.9402 0.80772 2.6823-0.44849 0.36907-0.62477 0.86918-0.95831 1.7813-1.188 1.6026-0.40354 1.994-1.0306 3.2545-5.2129 1.001-3.3214 1.6692-4.2711 2.721-3.8674 1.0649 0.40865 1.047 1.0873-0.12909 4.8989-0.93685 3.0362-1.1472 4.1517-1.1475 6.0864-5.8e-4 2.388-0.22606 3.1119-1.5327 4.9182-1.5426 2.1325-12.213 43.343-11.791 45.537 0.23126 1.2008 2.5382 1.535 5.0755 0.73515 1.8194-0.57351 2.1162-0.46809 4.464 1.5857 1.8366 1.6066 1.8362 1.6112-0.42643 6.318-2.1221 4.4144-2.0427 4.6144 0.87065 2.1916 2.0317-1.6896 2.4633-1.7517 4.1936-0.6038 0.70937 0.47061 1.3755 0.80264 1.4804 0.73785 0.37518-0.23187 4.8724 3.64 5.3153 4.5761 0.6896 1.4578 1.9766 6.8208 2.159 8.997 0.19135 2.2824 0.0671 2.3945-3.8438 3.4675-2.4828 0.68114-3.3649 0.59726-3.9811-0.37857-0.66468-1.0526-1.9568-4.2237-1.7893-4.3913 0.28869-0.28869-1.7059-3.6402-3.204-5.3836-1.6745-1.9487-2.0527-2.1197-0.96691-0.43702 0.39663 0.61468 1.0186 2.034 1.3821 3.154 0.36355 1.12 0.83429 2.2946 1.0461 2.6102 1.2546 1.8695 0.41327 2.8911-2.9959 3.6377-2.8105 0.61551-4.434 1.1512-8.3238 2.7463-3.037 1.2454-3.8549 1.2869-5.3454 0.27089-0.62233-0.42417-2.203-1.2652-3.5127-1.8689-3.2804-1.5122-3.8373-2.6673-2.852-5.9152 0.51043-1.6826 0.52836-1.9174 0.14643-1.9174-0.36544 0-1.696 1.9973-1.8414 2.764-0.11696 0.61707-0.30218 1.0824-1.4518 3.6476-1.0576 2.3599-1.1959 2.4286-4.491 2.232-2.1781-0.12995-3.4482-0.0386-5.5891 0.40188-2.899 0.59648-4.078 0.5374-4.7198-0.23655-0.82089-0.98987-1.9938-1.2211-4.0202-0.79254-12.756 2.6977-15.99 3.0685-19.2 2.2013zm28.5-10.727c0.3248-0.44 1.0829-1.6473 1.6846-2.683 0.96601-1.6626 1.2633-1.9458 2.5407-2.4201 1.8698-0.69426 1.8828-0.72215 1.888-4.0606 5e-3 -2.9493 0.42389-4 1.5962-4 1.7939 0 5.0992-2.6901 5.0992-4.1502 0-0.64453-2.7016-3.0362-3.8371-3.397-4.0486-1.2863-4.545-4.7048-1.2695-8.7438 0.96037-1.1842 4.6611-8.8357 5.019-10.377 0.23605-1.0166-2.36-1.9341-7.2825-2.5739-2.3693-0.30795-5.5181 4.9169-7.1916 11.933-0.19082 0.8-0.90692 2.4364-1.5913 3.6364-3.0694 5.3816-6.6298 15.486-6.6625 18.909-0.0233 2.4303 0.80408 5.2364 1.5439 5.2364 1.1097 0 2.3571 0.66374 2.9151 1.551 0.45121 0.71755 0.95362 1.0269 2.2681 1.3967 2.3647 0.66525 2.6135 0.64577 3.2798-0.25683zm21.158-22.203c1.1489-5.8563 3.9999-17.214 5.1795-20.633 1.107-3.2091 5.3804-19.774 5.3804-20.856 5e-5 -1.7868-1.6963-1.2929-3.281 0.95526-0.50507 0.71654-1.1844 1.3561-1.5096 1.4212-2.5243 0.5053-2.7813 0.48078-4.3465-0.41475-1.0633-0.60838-1.9529-0.89129-2.8256-0.89862-0.70052-6e-3 -2.1736-0.18478-3.2735-0.39756-3.7576-0.72693-4.5333-0.25227-6.7637 4.1386-2.0512 4.0381-2.1225 3.6954 1.0331 4.967 15.42 6.2137 15.868 7.1564 8.819 18.536-4.8972 7.9056-4.9195 7.9521-4.4654 9.3188 1.0076 3.0326 1.8772 4.2888 3.5321 5.1028 2.0397 1.0032 2.0855 0.98072 2.5211-1.2398zm-92.364 20.909c-0.49966-0.49966-0.4866-8.4849 0.01455-8.8966 0.2-0.16433 1.6962-0.34399 3.325-0.39926 3.332-0.11305 4.448-0.61845 4.7861-2.1676 0.50528-2.3151 0.26147-64.532-0.25694-65.569-0.69462-1.39-1.632-1.7548-5.1012-1.985l-2.9711-0.19717-0.0807-4.3242c-0.05489-2.9411 0.0263-4.4531 0.2538-4.7273 0.45873-0.55273 32.236-0.60502 32.787-0.05395 0.38857 0.38857 0.50143 8.2817 0.12646 8.8444-0.11755 0.17641-1.4745 0.39408-3.0155 0.48371-5.8989 0.34311-5.3437-3.3059-5.3437 35.123 0 38.389-0.60459 34.612 5.5418 34.617 3.1118 2e-3 3.04-0.11117 3.04 4.8016 0 2.8024-0.11059 4.2124-0.3491 4.4509-0.50373 0.50374-32.253 0.50374-32.756 0zm124.46-0.21239c-0.44347-0.82864-0.39187-7.9391 0.0619-8.5207 0.2794-0.35813 1.0434-0.49088 3.2983-0.57308 3.4673-0.1264 4.3027-0.52031 4.768-2.2482 0.20936-0.77749 0.28255-11.394 0.22961-33.303l-0.07777-32.162-0.76689-0.76683c-0.87583-0.87576-2.4172-1.2514-5.2113-1.27-1.0774-0.0072-2.0572-0.16438-2.2546-0.36176-0.57128-0.57128-0.47744-8.2083 0.10805-8.7938 0.50331-0.50331 65.306-0.7142 66.092-0.21509 0.28722 0.18232 0.35063 2.5752 0.29091 10.977l-0.0764 10.744h-11.636l-0.17117-3.9313c-0.29218-6.7101 0.91446-6.2505-16.411-6.2505h-13.673l-0.0757 12.873-0.0758 12.873h20.687l0.71404-0.71406c0.72616-0.72615 0.92404-1.9148 0.76626-4.6027-0.13078-2.228-0.0839-2.2469 5.5726-2.2469 3.5185 0 5.127 0.10453 5.3716 0.34909 0.4365 0.4365 0.4981 25.728 0.0643 26.415-0.27594 0.43651-10.174 0.69251-10.593 0.27396-0.0893-0.0893-0.22027-1.4639-0.29099-3.0545-0.22593-5.0813 0.53705-4.7831-12.238-4.7831h-10.054l0.151 28.364h14.545c18.363 0 17.013 0.54341 17.017-6.8509 1e-3 -2.4498 0.11648-3.7658 0.35072-4 0.40219-0.4022 10.6-0.49955 11.218-0.1071 0.28732 0.1824 0.3506 2.6333 0.29091 11.268l-0.0763 11.035-33.807 0.0739c-33.191 0.0726-33.813 0.0637-34.109-0.48997z" fill="#a5a6a7"/>
   <path d="m126.25 173.21c-5.2574-1.3927-5.0629-1.2261-4.6227-3.9596 0.86087-5.3455 3.0602-7.3953 6.4301-5.9927 1.0981 0.45704 2.4534 0.69644 4.738 0.83699 1.76 0.10826 3.8622 0.29365 4.6716 0.41197 1.3183 0.19271 1.56 0.13908 2.3201-0.51473l0.84851-0.72986-1.1945-1.1222c-0.65698-0.61724-1.8704-1.6197-2.6966-2.2277-2.6187-1.9272-2.5758-2.7195 0.38185-7.039 1.4308-2.0896 1.6956-2.9739 2.353-7.8556 0.32405-2.4065 0.8703-4.6657 1.7584-7.2727 2.364-6.9394 3.2296-15.919 2.0611-21.382-0.84275-3.9402-0.40935-7.7235 1.159-10.117 0.66528-1.0154 0.34307-1.4313-1.3894-1.7938-3.2997-0.69025-5.7551-3.3684-5.3494-5.8347 0.29102-1.769 7.0132-21.837 8.74-26.092 0.57346-1.413 1.4549-2.0807 3.1224-2.3654l1.1875-0.20273 0.0712-2.47c0.0744-2.5837 0.79255-6.1008 1.4634-7.167 0.29183-0.4638 1.0978-0.79418 3.1368-1.2857l2.7441-0.66153 3.7418 1.0962c8.1097 2.3757 9.2424 3.0805 8.9465 5.5668-0.1867 1.5686 0.81225 3.2771 2.3798 4.0702 3.5301 1.7859 4.4417 2.8675 3.3744 4.0036-0.34739 0.36973-0.63158 0.82051-0.63158 1.0017s-0.32727 0.94501-0.72727 1.6973c-0.4 0.7523-0.72728 1.7336-0.72728 2.1807 0 0.48283-0.23598 0.97819-0.5812 1.22-0.31966 0.2239-0.7573 0.9186-0.97253 1.5438-0.42342 1.2299-1.2979 1.8528-2.6108 1.8597-2.2906 0.01199-2.4083 0.83907-0.43903 3.0863 0.82801 0.94489 1.9424 2.325 2.4764 3.0669 1.5592 2.1662 3.842 3.5782 5.3878 3.3325 3.6511-0.5804 3.6587-0.58 4.7402 0.24484 1.2174 0.92857 1.9402 0.80772 2.6823-0.44849 0.36907-0.62477 0.86918-0.95831 1.7813-1.188 1.6026-0.40354 1.994-1.0306 3.2545-5.2129 1.001-3.3214 1.6692-4.2711 2.721-3.8674 1.0649 0.40865 1.047 1.0873-0.12909 4.8989-0.93685 3.0362-1.1472 4.1517-1.1475 6.0864-5.8e-4 2.388-0.22606 3.1119-1.5327 4.9182-1.5426 2.1325-12.213 43.343-11.791 45.537 0.23126 1.2008 2.5382 1.535 5.0755 0.73515 1.8194-0.57351 2.1162-0.46809 4.464 1.5857 1.8366 1.6066 1.8362 1.6112-0.42643 6.318-2.1221 4.4144-2.0427 4.6144 0.87065 2.1916 2.0574-1.711 2.392-1.7519 4.3329-0.53064 6.1609 3.8767 6.9585 5.1032 8.4372 12.974 0.5283 2.812 0.41285 3.1272-1.3887 3.7918-4.8864 1.8025-5.3999 1.6212-7.1492-2.5244-1.3821-3.2754-2.5103-5.1536-4.3101-7.1751-1.3886-1.5597-1.5777-1.531-0.53447 0.0813 0.91414 1.4126 2.3062 5.6924 2.3323 7.1701 0.0229 1.2984 0.20053 1.2112-4.6962 2.3055-1.1541 0.25792-3.672 1.1264-5.5952 1.9299-3.7454 1.5648-4.4098 1.6882-5.5427 1.0296-0.4-0.23254-1.9054-1.0203-3.3454-1.7506-3.8646-1.9599-4.5026-3.0801-3.6601-6.4262 0.79468-3.156-0.54802-1.6406-2.9601 3.3408l-1.7458 3.6054-3.0778-0.1743c-2.4864-0.1408-3.5818-0.062-5.7003 0.40985-2.8867 0.64299-3.507 0.58853-4.7244-0.41482-1.1981-0.98748-1.7969-1.1297-3.2787-0.77872-9.6244 2.2797-16.763 3.1758-19.507 2.4488zm28.21-10.52c0.3248-0.44 1.0829-1.6473 1.6846-2.683 0.96601-1.6626 1.2633-1.9458 2.5407-2.4201 1.8698-0.69426 1.8828-0.72215 1.888-4.0606 5e-3 -2.9493 0.42389-4 1.5962-4 1.7939 0 5.0992-2.6901 5.0992-4.1502 0-0.64453-2.7016-3.0362-3.8371-3.397-4.0486-1.2863-4.545-4.7048-1.2695-8.7438 0.96037-1.1842 4.6611-8.8357 5.019-10.377 0.23605-1.0166-2.36-1.9341-7.2825-2.5739-2.3693-0.30795-5.5181 4.9169-7.1916 11.933-0.19082 0.8-0.90692 2.4364-1.5913 3.6364-3.0694 5.3816-6.6298 15.486-6.6625 18.909-0.0233 2.4303 0.80408 5.2364 1.5439 5.2364 1.1097 0 2.3571 0.66374 2.9151 1.551 0.45121 0.71755 0.95362 1.0269 2.2681 1.3967 2.3647 0.66525 2.6135 0.64577 3.2798-0.25683zm21.158-22.203c1.1489-5.8563 3.9999-17.214 5.1795-20.633 1.107-3.2091 5.3804-19.774 5.3804-20.856 5e-5 -1.7868-1.6963-1.2929-3.281 0.95526-0.50507 0.71654-1.1844 1.3561-1.5096 1.4212-2.5243 0.5053-2.7813 0.48078-4.3465-0.41475-1.0633-0.60838-1.9529-0.89129-2.8256-0.89862-0.70052-6e-3 -2.1736-0.18478-3.2735-0.39756-3.7576-0.72693-4.5333-0.25227-6.7637 4.1386-2.0512 4.0381-2.1225 3.6954 1.0331 4.967 15.42 6.2137 15.868 7.1564 8.819 18.536-4.8972 7.9056-4.9195 7.9521-4.4654 9.3188 1.0076 3.0326 1.8772 4.2888 3.5321 5.1028 2.0397 1.0032 2.0855 0.98072 2.5211-1.2398zm-92.293 20.592c-0.08022-0.20905-0.10926-2.2065-0.06454-4.4388l0.08132-4.0587 3.2276-0.15518c3.5746-0.17186 4.5988-0.574 4.9859-1.9576 0.44456-1.5889 0.2683-65.641-0.18295-66.485-0.61105-1.1418-2.0563-1.6675-5.1999-1.8917l-2.8307-0.20186-0.08102-4.1959c-0.06105-3.1617 0.01065-4.2541 0.29091-4.4319 0.48597-0.30839 31.676-0.30839 32.162 0 0.28026 0.17785 0.35197 1.2702 0.29091 4.4319l-0.081 4.1959-2.8175 0.20096c-6.2097 0.4429-5.6189-3.2678-5.6189 35.29 0 38.618-0.59869 34.721 5.3818 35.038l3.0545 0.1621v8.7273l-16.226 0.0752c-13.141 0.0609-16.254 3e-3 -16.372-0.30492zm124.56-0.0838c-0.25143-0.65521-0.2117-7.7649 0.0456-8.1608 0.12494-0.19222 1.4222-0.3838 3.1228-0.46117 5.814-0.26448 5.2219 3.5896 5.314-34.59 0.0937-38.813 0.62085-35.318-5.3802-35.667-1.5636-0.09099-2.9391-0.30976-3.0567-0.48617-0.41093-0.61669-0.25887-7.9285 0.17232-8.2864 0.28894-0.2398 9.1714-0.30793 33.091-0.2538l32.696 0.07399 0.1526 21.382h-11.277l-0.13351-3.9365c-0.14658-4.3221-0.4126-5.0586-2.1504-5.9544-1.2414-0.6399-27.771-0.82774-28.292-0.20032-0.254 0.30606-0.323 3.7146-0.26679 13.179l0.07583 12.767 10.182 0.0772c12.828 0.0972 12.306 0.28999 12.487-4.6137 0.0497-1.3449 0.10768-2.5434 0.12891-2.6634 0.0858-0.48513 10.146-0.24959 10.335 0.24198 0.53798 1.402 0.17716 25.701-0.38611 26.002-0.65543 0.35077-9.0045 0.40546-9.5445 0.0625-0.23265-0.14774-0.40549-1.2409-0.48433-3.0634-0.21765-5.0309 0.20334-4.8719-12.637-4.7745l-10.08 0.07646v28.8l14.109 0.0754c18.922 0.1011 17.798 0.51962 18.036-6.7144l0.14546-4.4155h11.055v21.818l-33.641 0.0739c-30.488 0.067-33.658 0.0307-33.818-0.38743z" fill="#4abbe0"/>
   <path d="m125.84 173.1c-1.1072-0.29834-2.5264-0.7739-3.1538-1.0568l-1.1407-0.51437 0.20141-1.6166c0.24032-1.9288 1.0054-4.0426 2.0158-5.5694 1.151-1.7393 1.4636-1.8003 4.2405-0.82844 1.9277 0.67467 2.9368 0.85402 4.8056 0.85402 1.301 0 3.1037 0.14826 4.0061 0.32948 3.2886 0.66044 5.3071-1.9576 2.4601-3.1907-0.90348-0.3913-3.794-2.8172-4.0648-3.4114-0.39822-0.874 0.19482-2.2739 2.2103-5.2174 1.4402-2.1034 1.6977-2.9711 2.3741-8.001 0.34313-2.5515 0.8308-4.5911 1.6346-6.8364 2.4126-6.7394 3.3918-16.58 2.1655-21.764-0.86446-3.6539-0.4056-7.641 1.1532-10.02 0.76535-1.1681 0.4369-1.5505-1.8242-2.124-2.7028-0.68548-3.3226-1.1179-4.2611-2.9729-1.0593-2.0936-1.1499-1.6292 2.4046-12.323 5.8799-17.69 6.0298-18.009 8.6219-18.38l1.3937-0.19936 0.0752-2.7631c0.0819-3.0107 0.96417-6.9059 1.6832-7.4317 1.1024-0.80608 5.0872-1.4135 6.6635-1.0157 8.7255 2.2018 11.431 3.6224 11.08 5.8175-0.28762 1.7986 0.93577 3.839 2.7767 4.6309 2.8538 1.2277 4.017 2.6865 2.9278 3.6722-0.32 0.2896-0.58182 0.69568-0.58182 0.90242 0 0.20674-0.32727 0.9914-0.72727 1.7437-0.4 0.7523-0.72728 1.7364-0.72728 2.187 0 0.51671-0.21116 0.93218-0.57193 1.1253-0.31457 0.16835-0.71174 0.82528-0.88261 1.4598-0.35107 1.3038-0.96379 1.7455-2.4214 1.7455-2.6989 0-2.6827 1.0609 0.0685 4.4933 4.0728 5.0812 5.5201 5.9765 8.5765 5.3059l2.0615-0.45237 1.2891 0.85388c1.6283 1.0785 1.6292 1.0784 2.8957-0.28105 0.61674-0.66202 1.4498-1.2168 1.9992-1.3314 1.3618-0.28411 1.9911-1.2812 3.1486-4.9891 1.2431-3.9822 1.8343-4.76 2.8477-3.7467 0.48962 0.48962 0.43447 0.7838-0.99637 5.3147-0.65335 2.0689-0.85099 3.2508-0.85134 5.0909-5.8e-4 2.4091-0.22632 3.1433-1.5121 4.9152-1.4253 1.9642-11.874 42.056-11.87 45.544 1e-3 1.2703 3.0805 1.9602 5.059 1.1336 1.7188-0.71815 2.2249-0.59071 4.2036 1.0585 2.2084 1.8406 2.2104 1.7303-0.12111 6.5071-2.2098 4.5275-1.8618 5.1626 1.3078 2.3867 1.739-1.523 2.3936-1.6449 3.8076-0.70913 0.63228 0.41842 1.2645 0.76077 1.4049 0.76077 0.34834 0 2.8565 1.8898 4.2059 3.169 1.9236 1.8236 4.2598 11.182 3.0422 12.187-0.45265 0.37353-3.4891 1.4005-4.9293 1.6672-1.4466 0.26786-2.2132-0.52079-3.2656-3.3592-1.3373-3.607-1.7556-4.3834-3.952-7.3368-2.6686-3.5883-4.1531-4.084-1.853-0.61883 1.2913 1.9454 3.3706 7.2043 3.251 8.2222-0.0942 0.80186-0.23787 0.85803-4.804 1.8785-1.1541 0.25792-3.672 1.1264-5.5952 1.9299-3.7454 1.5648-4.4098 1.6882-5.5427 1.0296-0.4-0.23254-1.8942-1.0152-3.3205-1.7393-4.0796-2.0711-4.4056-2.6543-3.4835-6.2337 0.54197-2.1039 0.43529-2.705-0.38791-2.1857-0.54294 0.34248-1.2576 1.6837-3.0852 5.7901l-1.2947 2.9091-3.5959 6e-3c-2.4565 4e-3 -4.3133 0.17522-5.86 0.54042-2.3909 0.56453-3.4871 0.41073-4.3325-0.60786-0.64399-0.77595-1.7122-1.004-3.1297-0.66821-10.202 2.4171-16.763 3.1857-19.923 2.3342zm28.251-9.5429c0.19079-0.1213 1.0452-1.3856 1.8988-2.8094 1.4274-2.3812 1.6605-2.6257 2.9053-3.0477 1.8537-0.62846 1.813-0.54236 1.9763-4.1813l0.14545-3.2403 2.1818-0.79919c2.2689-0.8311 3.8714-2.2161 4.2594-3.6815 0.22941-0.86643-2.4493-3.705-3.7701-3.9951-3.804-0.8355-4.4441-4.5687-1.4104-8.225 1.0959-1.3208 4.9085-9.2772 5.1994-10.85 0.22929-1.2401-7.1281-3.331-9.0653-2.5764-1.5971 0.62219-4.3558 6.1482-5.9609 11.94-0.31812 1.148-0.98707 2.7241-1.4866 3.5024-0.84473 1.3164-2.8718 5.846-4.5068 10.071-1.2392 3.2022-2.5334 8.536-2.3816 9.8153 0.20965 1.766 1.0925 4.5504 1.4763 4.6562 0.18558 0.0512 0.86105 0.23721 1.501 0.4134 0.81726 0.225 1.3564 0.62026 1.8114 1.3279 0.48986 0.76192 0.91531 1.0523 1.7455 1.1912 0.60374 0.10106 1.425 0.29359 1.825 0.42786 0.94585 0.31748 1.2353 0.32807 1.656 0.0606zm21.32-21.08c0.14998-0.36 0.48355-1.7673 0.74125-3.1273 0.79732-4.2078 3.5563-15.164 4.8083-19.095 1.6977-5.3299 5.5101-20.124 5.5104-21.383 5.8e-4 -1.9714-2.3783-1.4098-3.7792 0.89223-0.76474 1.2566-0.87796 1.3215-2.8415 1.6269-1.0362 0.16118-1.4619 0.0622-2.5995-0.6045-1.3462-0.78893-2.3322-0.97601-7.6523-1.4519-3.0132-0.26955-3.5363 0.13962-5.742 4.4917-2.014 3.974-2.0142 4.0767-7e-3 4.6662 0.6819 0.20025 4.0176 1.6942 7.4126 3.3198 8.7452 4.1874 9.0064 5.1942 3.5623 13.729-6.1766 9.6827-6.175 9.6787-4.9041 12.687 1.0876 2.5747 1.4973 3.0766 3.0642 3.7532 0.66238 0.28602 1.2919 0.66179 1.399 0.83503 0.31217 0.5051 0.73343 0.36586 1.0273-0.33956zm-92.084 18.607c-0.08022-0.20905-0.10926-2.2065-0.06454-4.4388l0.08132-4.0587 3.2276-0.15518c3.5746-0.17186 4.5988-0.574 4.9859-1.9576 0.44456-1.5889 0.2683-65.641-0.18295-66.485-0.61105-1.1418-2.0563-1.6675-5.1999-1.8917l-2.8307-0.20186-0.08102-4.1959c-0.06105-3.1617 0.01065-4.2541 0.29091-4.4319 0.48597-0.30839 31.676-0.30839 32.162 0 0.28026 0.17785 0.35197 1.2702 0.29091 4.4319l-0.081 4.1959-2.8175 0.20096c-6.2097 0.4429-5.6189-3.2678-5.6189 35.29 0 38.618-0.59869 34.721 5.3818 35.038l3.0545 0.1621v8.7273l-16.226 0.0752c-13.141 0.0609-16.254 3e-3 -16.372-0.30492zm124.56-0.0838c-0.25143-0.65521-0.2117-7.7649 0.0456-8.1608 0.12494-0.19222 1.4222-0.3838 3.1228-0.46117 5.814-0.26448 5.2219 3.5896 5.314-34.59 0.0937-38.813 0.62085-35.318-5.3802-35.667-1.5636-0.09099-2.9391-0.30976-3.0567-0.48617-0.41093-0.61669-0.25887-7.9285 0.17232-8.2864 0.28894-0.2398 9.1714-0.30793 33.091-0.2538l32.696 0.07399 0.1526 21.382h-11.277l-0.13351-3.9365c-0.14658-4.3221-0.4126-5.0586-2.1504-5.9544-1.2414-0.6399-27.771-0.82774-28.292-0.20032-0.254 0.30606-0.323 3.7146-0.26679 13.179l0.07583 12.767 10.182 0.0772c12.828 0.0972 12.306 0.28999 12.487-4.6137 0.0497-1.3449 0.10768-2.5434 0.12891-2.6634 0.0858-0.48513 10.146-0.24959 10.335 0.24198 0.53798 1.402 0.17716 25.701-0.38611 26.002-0.65543 0.35077-9.0045 0.40546-9.5445 0.0625-0.23265-0.14774-0.40549-1.2409-0.48433-3.0634-0.21765-5.0309 0.20334-4.8719-12.637-4.7745l-10.08 0.07646v28.8l14.109 0.0754c18.922 0.1011 17.798 0.51962 18.036-6.7144l0.14546-4.4155h11.055v21.818l-33.641 0.0739c-30.488 0.067-33.658 0.0307-33.818-0.38743z" fill="#0ca5d8"/>
   <path d="m125.72 173.06c-2.1407-0.57493-3.8312-1.5327-3.8312-2.1706 0-3.218 2.676-8.2476 4.1686-7.835 1.8284 0.50551 2.8132 1.1195 2.8132 1.7539 0 1.0112-0.11244 1.0051 18.479 1.0051 9.6575 0 17.613 0.0982 17.678 0.21818 0.0657 0.12-0.4595 1.4483-1.1671 2.9518l-1.2866 2.7336-3.0947-0.17524c-2.5046-0.14184-3.5947-0.0639-5.7172 0.40889-2.8867 0.64299-3.507 0.58853-4.7244-0.41482-1.1981-0.98748-1.7969-1.1297-3.2787-0.77872-10.343 2.45-16.751 3.1863-20.04 2.3029zm48.532-0.11427c-0.4-0.23254-1.9054-1.0203-3.3454-1.7506-3.3712-1.7097-3.7389-2.0853-3.7629-3.8435l-0.019-1.3927 22.557-0.1523 0.29896 0.78633c0.79062 2.0795 0.57526 2.2387-4.591 3.3932-1.1541 0.25792-3.672 1.1264-5.5952 1.9299-3.7454 1.5648-4.4098 1.6882-5.5427 1.0296zm20.291-1.9089c-0.57024-0.34367-1.0917-1.2657-1.9563-3.4593l-0.58669-1.4884 1.4521-0.55209v-5.5173c0-3.0345 0.11492-5.5883 0.25537-5.6751 0.28862-0.17837 2.5353 1.4298 4.1933 3.0016 1.9236 1.8236 4.2598 11.182 3.0422 12.187-1.0916 0.90079-5.6308 1.9672-6.4 1.5036zm-111.22-9.9622c-0.08022-0.20905-0.10926-2.2065-0.06454-4.4388l0.08132-4.0587 3.2276-0.15518c3.5746-0.17186 4.5988-0.574 4.9859-1.9576 0.44456-1.5889 0.2683-65.641-0.18295-66.485-0.61105-1.1418-2.0563-1.6675-5.1999-1.8917l-2.8307-0.20186-0.08102-4.1959c-0.06105-3.1617 0.01065-4.2541 0.29091-4.4319 0.48597-0.30839 31.676-0.30839 32.162 0 0.28026 0.17785 0.35197 1.2702 0.29091 4.4319l-0.081 4.1959-2.8175 0.20096c-6.2097 0.4429-5.6189-3.2678-5.6189 35.29 0 38.618-0.59869 34.721 5.3818 35.038l3.0545 0.1621v8.7273l-16.226 0.0752c-13.141 0.0609-16.254 3e-3 -16.372-0.30492zm124.56-0.0838c-0.25143-0.65521-0.2117-7.7649 0.0456-8.1608 0.12494-0.19222 1.4222-0.3838 3.1228-0.46117 5.814-0.26448 5.2219 3.5896 5.314-34.59 0.0937-38.813 0.62085-35.318-5.3802-35.667-1.5636-0.09099-2.9391-0.30976-3.0567-0.48617-0.41093-0.61669-0.25887-7.9285 0.17232-8.2864 0.28894-0.2398 9.1714-0.30793 33.091-0.2538l32.696 0.07399 0.1526 21.382h-11.277l-0.13351-3.9365c-0.14658-4.3221-0.4126-5.0586-2.1504-5.9544-1.2414-0.6399-27.771-0.82774-28.292-0.20032-0.254 0.30606-0.323 3.7146-0.26679 13.179l0.07583 12.767 10.182 0.0772c12.828 0.0972 12.306 0.28999 12.487-4.6137 0.0497-1.3449 0.10768-2.5434 0.12891-2.6634 0.0858-0.48513 10.146-0.24959 10.335 0.24198 0.53798 1.402 0.17716 25.701-0.38611 26.002-0.65543 0.35077-9.0045 0.40546-9.5445 0.0625-0.23265-0.14774-0.40549-1.2409-0.48433-3.0634-0.21765-5.0309 0.20334-4.8719-12.637-4.7745l-10.08 0.07646v28.8l14.109 0.0754c18.922 0.1011 17.798 0.51962 18.036-6.7144l0.14546-4.4155h11.055v21.818l-33.641 0.0739c-30.488 0.067-33.658 0.0307-33.818-0.38743z" fill="#606060"/>
   <path d="m125.72 173.06c-2.1407-0.57493-3.8312-1.5327-3.8312-2.1706 0-3.218 2.676-8.2476 4.1686-7.835 1.8284 0.50551 2.8132 1.1195 2.8132 1.7539 0 1.0112-0.11244 1.0051 18.479 1.0051 9.6575 0 17.613 0.0982 17.678 0.21818 0.0657 0.12-0.4595 1.4483-1.1671 2.9518l-1.2866 2.7336-3.0947-0.17524c-2.5046-0.14184-3.5947-0.0639-5.7172 0.40889-2.8867 0.64299-3.507 0.58853-4.7244-0.41482-1.1981-0.98748-1.7969-1.1297-3.2787-0.77872-10.343 2.45-16.751 3.1863-20.04 2.3029zm48.532-0.11427c-0.4-0.23254-1.9054-1.0203-3.3454-1.7506-3.3712-1.7097-3.7389-2.0853-3.7629-3.8435l-0.019-1.3927 22.557-0.1523 0.29896 0.78633c0.79062 2.0795 0.57526 2.2387-4.591 3.3932-1.1541 0.25792-3.672 1.1264-5.5952 1.9299-3.7454 1.5648-4.4098 1.6882-5.5427 1.0296zm20.291-1.9089c-0.57024-0.34367-1.0917-1.2657-1.9563-3.4593l-0.58669-1.4884 1.4521-0.55209v-5.5173c0-3.0345 0.11492-5.5883 0.25537-5.6751 0.28862-0.17837 2.5353 1.4298 4.1933 3.0016 1.9236 1.8236 4.2598 11.182 3.0422 12.187-1.0916 0.90079-5.6308 1.9672-6.4 1.5036zm-110.93-10.254c-0.08052-0.20983-0.10957-2.0764-0.06455-4.1479l0.08185-3.7664 3.0681-0.14546c3.4814-0.16504 4.4227-0.57007 5.1017-2.1951 0.69875-1.6723 0.60577-65.055-0.09748-66.45-0.7861-1.5583-1.9903-2.0857-5.248-2.2983l-2.8243-0.18434v-8.1455l15.418-0.08051c8.48-0.04428 15.716-0.0081 16.081 0.08032 0.65472 0.15889 0.66173 0.20895 0.58182 4.1532l-0.0809 3.9924-2.679 0.18856c-3.6426 0.25637-4.7261 0.80393-5.3835 2.7205-0.69836 2.0359-0.65425 64.906 0.0465 66.276 0.66824 1.3067 1.864 1.7591 5.107 1.9321l2.9091 0.15519v8.1454l-15.935 0.0752c-12.931 0.061-15.963 3e-3 -16.082-0.3063zm124.67-3.8139v-4.1929l3.0342-0.0992c3.5004-0.11444 4.4192-0.55467 5.0423-2.4158 0.73716-2.2021 0.36267-65.659-0.39351-66.68-0.9295-1.2556-2.0358-1.6508-4.9998-1.7862l-2.6987-0.1233 0.0805-4.1104 0.0805-4.1104h65.164l0.1528 20.8h-10.704l-0.11332-3.8779c-0.19887-6.8054 0.7796-6.4259-16.853-6.5352-11.633-0.07206-13.899-0.02025-14.185 0.32436-0.25128 0.30277-0.32054 3.8279-0.26462 13.468l0.0757 13.057 10.371 0.0764c13.133 0.0967 12.669 0.26537 12.966-4.7139l0.1659-2.7807h9.5145v25.891h-9.5306l-0.12537-2.6909c-0.14122-3.0314-0.61775-4.2583-1.8858-4.8557-0.90798-0.4277-20.98-0.48093-21.406-0.0568-0.12151 0.12085-0.18697 6.7574-0.14545 14.748l0.0755 14.528h14.982c18.91 0 17.489 0.53595 17.74-6.6909l0.1513-4.3636h10.473v21.236l-66.764 0.1479z" fill="#157190"/>
   <path d="m127.27 173.05c-4.1235-0.96092-4.0973-0.82509-0.79425-4.1128l2.5512-2.5394h35.587l-2.2279 4.8-3.0838-0.0794c-2.0008-0.0515-3.7548 0.0762-4.9942 0.36364-2.8594 0.66315-4.2539 0.58897-5.0601-0.26914-0.86845-0.92442-2.0265-1.1606-3.7312-0.76077-3.6744 0.86172-15.068 2.924-16.012 2.8983-0.58879-0.0161-1.5942-0.15125-2.2342-0.3004zm46.977-0.55162c-0.55751-0.32468-1.9955-1.0594-3.1955-1.6327-2.8952-1.3832-3.4909-1.9557-3.4909-3.355v-1.1129h22.036l0.18052 0.90261c0.24519 1.2259 0.13033 1.3363-1.7856 1.716-2.8854 0.57179-5.3435 1.3425-8.7047 2.7293-3.7407 1.5433-3.6945 1.5364-5.0402 0.7527zm20.522-1.808c-0.45386-0.25399-2.3603-3.9512-2.1343-4.139 0.0494-0.0411 0.38439-0.22793 0.74439-0.41523 0.64286-0.33447 0.65454-0.43644 0.65454-5.7121 0-2.9544 0.10468-5.3716 0.23262-5.3716 0.49158 0 3.6888 2.8089 4.2065 3.6956 0.56794 0.97274 2.5427 8.3755 2.5427 9.5317 0 0.8736-0.35926 1.1253-2.6182 1.834-2.6723 0.8385-3.0525 0.89892-3.6283 0.57667zm-111.15-9.9054c-0.08052-0.20983-0.10957-2.0764-0.06455-4.1479l0.08185-3.7664 3.0681-0.14546c3.4814-0.16504 4.4227-0.57007 5.1017-2.1951 0.69875-1.6723 0.60577-65.055-0.09748-66.45-0.7861-1.5583-1.9903-2.0857-5.248-2.2983l-2.8243-0.18434v-8.1455l15.418-0.08051c8.48-0.04428 15.716-0.0081 16.081 0.08032 0.65472 0.15889 0.66173 0.20895 0.58182 4.1532l-0.0809 3.9924-2.679 0.18856c-3.6426 0.25637-4.7261 0.80393-5.3835 2.7205-0.69836 2.0359-0.65425 64.906 0.0465 66.276 0.66824 1.3067 1.864 1.7591 5.107 1.9321l2.9091 0.15519v8.1454l-15.935 0.0752c-12.931 0.061-15.963 3e-3 -16.082-0.3063zm124.67-3.8139v-4.1929l3.0342-0.0992c3.5004-0.11444 4.4192-0.55467 5.0423-2.4158 0.73716-2.2021 0.36267-65.659-0.39351-66.68-0.9295-1.2556-2.0358-1.6508-4.9998-1.7862l-2.6987-0.1233 0.0805-4.1104 0.0805-4.1104h65.164l0.1528 20.8h-10.704l-0.11332-3.8779c-0.19887-6.8054 0.7796-6.4259-16.853-6.5352-11.633-0.07206-13.899-0.02025-14.185 0.32436-0.25128 0.30277-0.32054 3.8279-0.26462 13.468l0.0757 13.057 10.371 0.0764c13.133 0.0967 12.669 0.26537 12.966-4.7139l0.1659-2.7807h9.5145v25.891h-9.5306l-0.12537-2.6909c-0.14122-3.0314-0.61775-4.2583-1.8858-4.8557-0.90798-0.4277-20.98-0.48093-21.406-0.0568-0.12151 0.12085-0.18697 6.7574-0.14545 14.748l0.0755 14.528h14.982c18.91 0 17.489 0.53595 17.74-6.6909l0.1513-4.3636h10.473v21.236l-66.764 0.1479z" fill="#0c5a74"/>
   <path d="m83.619 160.79c-0.08052-0.20983-0.10957-2.0764-0.06455-4.1479l0.08185-3.7664 3.0681-0.14546c3.4814-0.16504 4.4227-0.57007 5.1017-2.1951 0.69875-1.6723 0.60577-65.055-0.09748-66.45-0.7861-1.5583-1.9903-2.0857-5.248-2.2983l-2.8243-0.18434v-8.1455l15.418-0.08051c8.48-0.04428 15.716-0.0081 16.081 0.08032 0.65472 0.15889 0.66173 0.20895 0.58182 4.1532l-0.0809 3.9924-2.679 0.18856c-3.6426 0.25637-4.7261 0.80393-5.3835 2.7205-0.69836 2.0359-0.65425 64.906 0.0465 66.276 0.66824 1.3067 1.864 1.7591 5.107 1.9321l2.9091 0.15519v8.1454l-15.935 0.0752c-12.931 0.061-15.963 3e-3 -16.082-0.3063zm124.67-3.8139v-4.1929l3.0342-0.0992c3.5004-0.11444 4.4192-0.55467 5.0423-2.4158 0.73716-2.2021 0.36267-65.659-0.39351-66.68-0.9295-1.2556-2.0358-1.6508-4.9998-1.7862l-2.6987-0.1233 0.0805-4.1104 0.0805-4.1104h65.164l0.1528 20.8h-10.704l-0.11332-3.8779c-0.19887-6.8054 0.7796-6.4259-16.853-6.5352-11.633-0.07206-13.899-0.02025-14.185 0.32436-0.25128 0.30277-0.32054 3.8279-0.26462 13.468l0.0757 13.057 10.371 0.0764c13.133 0.0967 12.669 0.26537 12.966-4.7139l0.1659-2.7807h9.5145v25.891h-9.5306l-0.12537-2.6909c-0.14122-3.0314-0.61775-4.2583-1.8858-4.8557-0.90798-0.4277-20.98-0.48093-21.406-0.0568-0.12151 0.12085-0.18697 6.7574-0.14545 14.748l0.0755 14.528h14.982c18.91 0 17.489 0.53595 17.74-6.6909l0.1513-4.3636h10.473v21.236l-66.764 0.1479z" fill="#0d0d0d"/>
  </g>
 </g>
</svg>
